<svg xmlns="http://www.w3.org/2000/svg" width="699" height="698" viewBox="141 113 443 497">
<g>
<path d="M 409.95 228.00 L 405.50 230.50 L 371.00 230.71 C333.73,230.94 331.18,230.66 324.58,225.63 C322.72,224.21 320.04,220.70 318.60,217.83 L 316.00 212.61 L 316.02 176.55 C316.05,136.78 316.15,136.06 322.61,129.61 C328.52,123.70 329.50,123.55 365.14,123.19 C385.56,122.98 399.96,123.26 403.64,123.93 C411.40,125.35 416.70,129.18 420.21,135.88 L 423.00 141.23 L 422.99 175.36 C422.99,195.79 422.57,211.00 421.95,213.22 C420.48,218.52 415.15,225.08 409.95,228.00 ZM 560.32 228.60 C556.82,230.34 553.64,230.52 522.00,230.69 C503.02,230.80 486.37,230.53 484.99,230.10 C476.85,227.52 471.16,222.00 468.55,214.15 C467.09,209.76 466.92,204.71 467.19,174.31 C467.49,140.63 467.57,139.37 469.71,135.38 C470.92,133.11 473.27,130.11 474.93,128.71 C480.86,123.72 482.84,123.50 521.50,123.50 C556.48,123.50 557.61,123.56 561.50,125.66 C566.60,128.41 570.48,132.50 572.45,137.22 C573.75,140.35 574.00,146.66 574.00,177.01 C574.00,210.87 573.88,213.32 572.04,216.92 C569.53,221.85 565.16,226.20 560.32,228.60 ZM 256.78 374.45 C253.66,375.75 247.34,376.00 217.24,376.00 C182.08,376.00 181.34,375.96 176.98,373.75 C171.90,371.18 166.56,364.69 165.05,359.22 C164.43,357.00 164.01,342.08 164.01,322.29 C164.00,291.18 164.13,288.73 166.06,283.56 C168.42,277.27 174.23,271.59 179.93,270.00 C181.96,269.44 197.99,269.01 217.07,269.01 C254.90,269.00 257.83,269.40 264.34,275.54 C265.76,276.89 266.89,277.94 267.77,279.17 C271.00,283.68 271.00,290.51 271.00,322.45 L 271.00 322.51 C271.00,356.56 270.87,359.34 269.09,362.79 C266.60,367.62 261.44,372.51 256.78,374.45 ZM 559.35 520.63 C556.77,521.71 548.42,522.00 520.28,521.98 L 518.50 521.98 C489.67,521.96 482.97,521.96 478.33,518.86 C476.83,517.87 475.54,516.54 473.80,514.80 C467.28,508.28 466.86,505.14 467.20,465.83 C467.49,432.71 467.58,431.36 469.69,427.41 C472.52,422.11 477.95,417.38 482.72,416.06 C485.03,415.42 500.18,415.01 521.55,415.01 L 556.61 415.00 L 561.72 417.55 C566.81,420.09 570.47,423.97 572.78,429.30 C573.66,431.32 574.00,442.00 574.00,467.96 C574.00,500.79 573.84,504.20 572.13,508.20 C570.06,513.03 564.43,518.51 559.35,520.63 ZM 559.78 374.45 C556.66,375.75 550.29,376.00 519.73,376.00 L 483.39 376.00 L 478.85 373.12 C473.79,369.91 470.93,366.38 468.52,360.34 C467.12,356.83 466.94,351.64 467.20,320.90 C467.49,286.53 467.56,285.38 469.72,281.35 C472.42,276.30 478.26,271.30 483.00,269.99 C488.14,268.56 553.29,268.71 558.14,270.16 C563.32,271.71 569.85,277.45 572.11,282.44 C573.79,286.14 573.96,289.66 573.96,322.50 C573.96,355.46 573.80,358.84 572.10,362.50 C569.81,367.44 564.70,372.40 559.78,374.45 ZM 410.00 373.65 C405.55,375.92 405.07,375.94 369.50,375.95 C336.69,375.96 333.15,375.79 329.50,374.12 C324.45,371.80 320.66,367.99 318.04,362.59 C316.10,358.57 316.00,356.60 316.01,321.93 L 316.02 285.50 L 319.00 280.30 C321.07,276.68 323.44,274.23 326.74,272.30 L 331.50 269.50 L 369.00 269.50 C405.48,269.50 406.61,269.56 410.50,271.65 C415.64,274.42 418.38,277.40 420.92,283.00 C422.84,287.24 422.96,289.43 422.97,321.50 C422.98,341.91 422.58,356.99 421.95,359.22 C420.45,364.64 415.17,371.01 410.00,373.65 ZM 408.54 520.12 C404.86,521.79 401.30,521.96 369.00,521.96 C336.65,521.96 333.14,521.79 329.44,520.11 C324.51,517.87 318.35,510.91 317.00,506.07 C316.43,504.02 316.01,487.34 316.01,466.96 L 316.00 431.41 L 319.25 425.97 C321.49,422.22 323.89,419.76 327.00,418.02 L 331.50 415.50 L 367.00 415.20 C391.64,414.98 403.77,415.24 406.64,416.05 C411.97,417.53 417.46,422.08 420.28,427.35 C422.43,431.37 422.51,432.55 422.80,466.21 C422.99,488.26 422.71,502.35 422.05,504.82 C420.69,509.86 413.70,517.78 408.54,520.12 ZM 260.14 518.47 L 255.83 521.50 L 219.17 521.67 C194.22,521.78 181.38,521.47 179.01,520.70 C174.03,519.09 167.62,512.28 165.66,506.50 C164.24,502.35 164.00,496.68 164.01,467.57 C164.02,433.99 164.05,433.43 166.35,428.49 C169.13,422.52 174.53,417.50 179.72,416.06 C182.04,415.42 197.06,415.02 218.50,415.04 L 253.50 415.06 L 259.00 417.78 C262.70,419.61 265.48,421.92 267.50,424.84 L 270.50 429.17 L 270.50 506.83 L 267.47 511.14 C265.81,513.51 262.51,516.81 260.14,518.47 ZM 183.50 222.07 L 183.50 224.50 L 167.94 224.77 C159.38,224.93 152.07,224.74 151.69,224.36 C150.09,222.76 151.20,219.95 154.01,218.49 L 157.02 216.94 L 156.76 176.26 L 156.50 135.59 L 154.00 135.00 C152.17,134.57 151.50,133.75 151.50,131.95 C151.50,129.51 151.54,129.50 163.00,129.19 C175.65,128.85 180.54,129.81 183.74,133.23 C184.90,134.48 190.47,144.50 196.12,155.50 C212.40,187.25 213.55,189.24 214.76,187.78 C215.84,186.46 218.71,181.16 234.62,151.00 C239.98,140.83 244.96,132.66 246.50,131.50 C248.84,129.73 250.69,129.50 262.82,129.50 C276.09,129.50 276.51,129.56 276.81,131.67 C277.03,133.22 276.32,134.22 274.31,135.18 L 271.50 136.53 L 271.24 175.92 C271.00,211.52 271.14,215.49 272.64,217.16 C273.56,218.17 274.95,219.00 275.72,219.00 C276.67,219.00 277.03,219.90 276.82,221.75 L 276.50 224.50 L 243.50 224.50 L 243.50 222.01 C243.50,220.32 244.13,219.41 245.50,219.16 C246.60,218.96 248.29,218.10 249.25,217.24 C250.84,215.83 251.00,213.11 251.00,187.85 C251.00,172.53 250.66,160.01 250.25,160.01 C249.84,160.02 243.45,171.16 236.05,184.76 C215.82,221.96 214.05,224.96 212.72,224.42 C211.66,224.00 205.52,212.75 182.60,169.30 C179.90,164.18 177.31,160.00 176.85,160.00 C175.76,160.00 175.76,215.08 176.85,216.79 C177.30,217.50 178.98,218.44 180.59,218.86 C182.79,219.45 183.50,220.23 183.50,222.07 ZM 257.52 598.13 C251.99,600.64 239.94,600.63 234.50,598.10 C226.26,594.27 222.63,588.55 222.71,579.50 C222.81,567.01 230.65,560.66 246.04,560.60 C253.76,560.57 255.11,560.87 260.04,563.65 C266.20,567.12 268.72,570.66 269.60,577.10 C270.85,586.24 266.32,594.13 257.52,598.13 ZM 176.58 598.87 C175.70,600.30 165.34,600.36 164.46,598.94 C164.10,598.35 164.52,597.08 165.40,596.11 C167.80,593.46 167.75,565.49 165.35,562.83 C163.76,561.07 163.96,561.00 170.32,561.00 C170.73,561.00 171.11,561.00 171.47,561.00 C173.60,560.98 174.99,560.97 176.15,561.48 C178.51,562.52 179.93,565.71 184.77,575.38 C187.49,580.82 189.95,584.87 190.24,584.38 C190.53,583.90 193.13,579.00 196.03,573.50 C198.92,568.00 201.73,562.94 202.27,562.25 C202.87,561.48 205.74,561.00 209.78,561.00 C216.04,561.00 216.24,561.07 214.65,562.83 C212.32,565.41 212.18,595.07 214.49,596.99 C217.01,599.08 215.16,600.00 208.44,600.00 C201.94,600.00 200.75,599.28 203.50,597.00 C204.66,596.04 205.00,593.38 205.00,585.38 C205.00,579.67 204.66,575.01 204.25,575.01 C203.84,575.02 200.66,580.18 197.19,586.49 C193.72,592.79 190.51,598.18 190.06,598.47 C188.84,599.22 187.84,597.68 181.47,585.25 C178.30,579.06 175.32,574.00 174.85,574.00 C174.38,574.00 174.00,578.93 174.00,584.95 C174.00,594.06 174.28,596.05 175.64,596.82 C176.54,597.32 176.97,598.25 176.58,598.87 ZM 493.43 599.11 C493.13,599.60 490.21,600.00 486.94,600.00 C482.43,600.00 481.00,599.65 481.00,598.56 C481.00,597.77 481.45,596.84 482.00,596.50 C482.60,596.13 483.00,589.32 483.00,579.44 C483.00,569.15 482.63,563.00 482.00,563.00 C481.45,563.00 481.00,562.55 481.00,562.00 C481.00,561.45 483.34,561.00 486.21,561.00 L 491.41 561.00 L 503.73 573.31 C510.50,580.09 516.26,585.41 516.52,585.15 C516.78,584.88 517.00,580.07 517.00,574.46 C517.00,565.00 516.83,564.13 514.75,562.67 C512.62,561.19 512.89,561.10 519.95,561.05 C525.74,561.01 527.13,561.27 526.20,562.20 C524.67,563.73 524.49,596.57 526.02,597.51 C527.97,598.72 525.85,600.00 521.92,600.00 C518.15,600.00 517.31,599.34 504.51,586.25 L 491.06 572.50 L 491.03 584.13 C491.01,593.23 491.32,596.02 492.49,596.99 C493.31,597.67 493.73,598.63 493.43,599.11 ZM 573.80 594.75 L 573.50 599.50 L 554.25 599.77 C537.90,600.00 535.00,599.82 535.00,598.58 C535.00,597.78 535.45,596.84 536.00,596.50 C536.60,596.13 537.00,589.32 537.00,579.44 C537.00,569.15 536.63,563.00 536.00,563.00 C535.45,563.00 535.00,562.55 535.00,562.00 C535.00,561.37 542.17,561.00 554.50,561.00 L 574.00 561.00 L 574.00 564.83 C574.00,569.59 573.31,570.33 570.65,568.46 C569.11,567.39 565.56,567.00 557.28,567.00 L 546.00 567.00 L 546.00 571.75 L 546.00 576.50 L 555.00 576.18 C563.65,575.87 564.05,575.95 564.89,578.18 C566.39,582.13 564.59,583.00 554.88,583.00 L 546.00 583.00 L 546.00 593.00 L 557.88 593.00 C567.22,593.00 570.02,592.68 571.00,591.50 C573.21,588.84 574.12,589.89 573.80,594.75 ZM 358.80 594.75 L 358.50 599.50 L 339.25 599.77 C322.90,600.00 320.00,599.82 320.00,598.58 C320.00,597.78 320.45,596.84 321.00,596.50 C321.60,596.13 322.00,589.32 322.00,579.44 C322.00,569.15 321.63,563.00 321.00,563.00 C320.45,563.00 320.00,562.55 320.00,562.00 C320.00,561.37 327.17,561.00 339.50,561.00 L 359.00 561.00 L 359.00 564.94 C359.00,569.36 357.84,570.72 355.99,568.49 C355.02,567.32 352.15,567.00 342.63,567.00 L 330.50 567.00 L 331.16 576.50 L 338.83 576.35 C348.99,576.14 350.19,576.52 349.81,579.84 C349.50,582.48 349.44,582.50 340.25,582.79 L 331.00 583.08 L 331.00 593.00 L 342.88 593.00 C352.22,593.00 355.02,592.68 356.00,591.50 C358.21,588.84 359.12,589.89 358.80,594.75 ZM 394.30 598.93 C388.27,600.61 377.14,600.15 371.64,598.01 C368.96,596.96 366.56,595.89 366.29,595.62 C366.02,595.35 366.33,593.53 366.98,591.57 C368.18,587.92 370.35,586.86 371.34,589.44 C372.65,592.87 389.58,594.38 393.78,591.44 C396.68,589.41 396.67,586.20 393.75,585.49 C392.51,585.19 387.27,584.32 382.10,583.55 C371.77,582.02 368.07,580.08 366.86,575.55 C364.04,565.01 374.63,558.47 390.42,560.99 C394.05,561.57 398.56,562.78 400.45,563.68 L 403.88 565.31 L 401.92 569.16 C400.84,571.27 399.77,573.00 399.53,573.00 C399.30,573.00 397.95,571.93 396.54,570.62 C391.09,565.57 375.00,565.74 375.00,570.85 C375.00,573.96 377.35,575.05 387.33,576.55 C398.95,578.29 401.43,579.20 403.58,582.47 C407.36,588.25 402.65,596.61 394.30,598.93 ZM 425.39 599.18 C424.70,600.29 412.26,600.23 411.57,599.11 C411.27,598.63 411.69,597.67 412.51,596.99 C413.72,595.99 414.00,592.70 414.00,579.74 C414.00,565.67 413.79,563.55 412.25,562.36 C410.72,561.16 411.19,561.02 416.00,561.24 L 421.50 561.50 L 421.79 570.32 C421.95,575.17 422.49,579.00 423.00,578.82 C423.50,578.64 428.17,574.56 433.38,569.75 L 442.85 561.00 L 448.67 561.05 L 454.50 561.09 L 451.00 563.79 C449.08,565.28 445.07,568.78 442.10,571.59 L 436.71 576.68 L 442.04 583.59 C451.70,596.10 452.49,597.00 453.83,597.00 C454.57,597.00 454.98,597.56 454.76,598.25 C454.53,598.94 452.32,599.63 449.83,599.80 C444.92,600.12 443.66,599.10 435.00,587.69 C433.08,585.15 431.03,583.06 430.45,583.04 C428.55,582.97 422.00,590.54 422.00,592.80 C422.00,594.02 422.88,595.77 423.95,596.69 C425.02,597.61 425.67,598.73 425.39,599.18 ZM 238.27 591.52 C240.05,592.29 243.79,592.94 246.60,592.96 C253.36,593.01 259.57,588.82 260.56,583.53 C262.44,573.52 257.27,568.00 246.02,568.00 C235.79,568.01 230.99,571.94 231.00,580.32 C231.01,584.65 234.36,589.82 238.27,591.52 ZM 313.80 594.75 L 313.50 599.50 L 295.25 599.77 C279.77,600.00 277.00,599.82 277.00,598.58 C277.00,597.78 277.45,596.84 278.00,596.50 C278.60,596.13 279.00,589.51 279.00,580.00 C279.00,570.49 278.60,563.87 278.00,563.50 C275.57,562.00 277.34,560.91 281.75,561.20 L 286.50 561.50 L 287.50 592.50 L 298.60 592.78 C307.60,593.01 309.94,592.77 310.97,591.53 C313.21,588.84 314.12,589.87 313.80,594.75 ZM 473.46 599.06 C472.73,600.25 461.30,600.30 460.57,599.11 C460.27,598.63 460.69,597.67 461.51,596.99 C462.71,595.99 463.00,592.76 463.00,580.21 C463.00,566.94 462.75,564.38 461.29,562.77 C459.63,560.94 459.75,560.89 465.04,561.19 L 470.50 561.50 L 470.77 578.97 C471.00,593.25 471.32,596.60 472.55,597.29 C473.37,597.75 473.78,598.55 473.46,599.06 Z" fill="rgb(32,32,32)"/>
<path d="M 0.00 349.00 L 0.00 0.00 L 349.50 0.00 L 699.00 0.00 L 699.00 349.00 L 699.00 698.00 L 349.50 698.00 L 0.00 698.00 L 0.00 349.00 ZM 176.58 598.87 C176.97,598.25 176.54,597.32 175.64,596.82 C174.28,596.05 174.00,594.06 174.00,584.95 C174.00,578.93 174.38,574.00 174.85,574.00 C175.32,574.00 178.30,579.06 181.47,585.25 C187.84,597.68 188.84,599.22 190.06,598.47 C190.51,598.18 193.72,592.79 197.19,586.49 C200.66,580.18 203.84,575.02 204.25,575.01 C204.66,575.01 205.00,579.67 205.00,585.38 C205.00,593.38 204.66,596.04 203.50,597.00 C200.75,599.28 201.94,600.00 208.44,600.00 C215.16,600.00 217.01,599.08 214.49,596.99 C212.18,595.07 212.32,565.41 214.65,562.83 C216.24,561.07 216.04,561.00 209.78,561.00 C205.74,561.00 202.87,561.48 202.27,562.25 C201.73,562.94 198.92,568.00 196.03,573.50 C193.13,579.00 190.53,583.90 190.24,584.38 C189.95,584.87 187.49,580.82 184.77,575.38 C177.15,560.15 178.01,561.00 170.32,561.00 C163.96,561.00 163.76,561.07 165.35,562.83 C167.75,565.49 167.80,593.46 165.40,596.11 C164.52,597.08 164.10,598.35 164.46,598.94 C165.34,600.36 175.70,600.30 176.58,598.87 ZM 257.52 598.13 C266.32,594.13 270.85,586.24 269.60,577.10 C268.72,570.66 266.20,567.12 260.04,563.65 C255.11,560.87 253.76,560.57 246.04,560.60 C230.65,560.66 222.81,567.01 222.71,579.50 C222.63,588.55 226.26,594.27 234.50,598.10 C239.94,600.63 251.99,600.64 257.52,598.13 ZM 313.80 594.75 C314.12,589.87 313.21,588.84 310.97,591.53 C309.94,592.77 307.60,593.01 298.60,592.78 L 287.50 592.50 L 287.00 577.00 L 286.50 561.50 L 281.75 561.20 C277.34,560.91 275.57,562.00 278.00,563.50 C278.60,563.87 279.00,570.49 279.00,580.00 C279.00,589.51 278.60,596.13 278.00,596.50 C277.45,596.84 277.00,597.78 277.00,598.58 C277.00,599.82 279.77,600.00 295.25,599.77 L 313.50 599.50 L 313.80 594.75 ZM 358.80 594.75 C359.12,589.89 358.21,588.84 356.00,591.50 C355.02,592.68 352.22,593.00 342.88,593.00 L 331.00 593.00 L 331.00 588.04 L 331.00 583.08 L 340.25 582.79 C349.44,582.50 349.50,582.48 349.81,579.84 C350.19,576.52 348.99,576.14 338.83,576.35 L 331.16 576.50 L 330.83 571.75 L 330.50 567.00 L 342.63 567.00 C352.15,567.00 355.02,567.32 355.99,568.49 C357.84,570.72 359.00,569.36 359.00,564.94 L 359.00 561.00 L 339.50 561.00 C327.17,561.00 320.00,561.37 320.00,562.00 C320.00,562.55 320.45,563.00 321.00,563.00 C321.63,563.00 322.00,569.15 322.00,579.44 C322.00,589.32 321.60,596.13 321.00,596.50 C320.45,596.84 320.00,597.78 320.00,598.58 C320.00,599.82 322.90,600.00 339.25,599.77 L 358.50 599.50 L 358.80 594.75 ZM 394.30 598.93 C402.65,596.61 407.36,588.25 403.58,582.47 C401.43,579.20 398.95,578.29 387.33,576.55 C377.35,575.05 375.00,573.96 375.00,570.85 C375.00,565.74 391.09,565.57 396.54,570.62 C397.95,571.93 399.30,573.00 399.53,573.00 C399.77,573.00 400.84,571.27 401.92,569.16 L 403.88 565.31 L 400.45 563.68 C398.56,562.78 394.05,561.57 390.42,560.99 C374.63,558.47 364.04,565.01 366.86,575.55 C368.07,580.08 371.77,582.02 382.10,583.55 C387.27,584.32 392.51,585.19 393.75,585.49 C396.67,586.20 396.68,589.41 393.78,591.44 C389.58,594.38 372.65,592.87 371.34,589.44 C370.35,586.86 368.18,587.92 366.98,591.57 C366.33,593.53 366.02,595.35 366.29,595.62 C366.56,595.89 368.96,596.96 371.64,598.01 C377.14,600.15 388.27,600.61 394.30,598.93 ZM 425.39 599.18 C425.67,598.73 425.02,597.61 423.95,596.69 C422.88,595.77 422.00,594.02 422.00,592.80 C422.00,590.54 428.55,582.97 430.45,583.04 C431.03,583.06 433.08,585.15 435.00,587.69 C443.66,599.10 444.92,600.12 449.83,599.80 C452.32,599.63 454.53,598.94 454.76,598.25 C454.98,597.56 454.57,597.00 453.83,597.00 C452.49,597.00 451.70,596.10 442.04,583.59 L 436.71 576.68 L 442.10 571.59 C445.07,568.78 449.08,565.28 451.00,563.79 L 454.50 561.09 L 448.67 561.05 L 442.85 561.00 L 433.38 569.75 C428.17,574.56 423.50,578.64 423.00,578.82 C422.49,579.00 421.95,575.17 421.79,570.32 L 421.50 561.50 L 416.00 561.24 C411.19,561.02 410.72,561.16 412.25,562.36 C413.79,563.55 414.00,565.67 414.00,579.74 C414.00,592.70 413.72,595.99 412.51,596.99 C411.69,597.67 411.27,598.63 411.57,599.11 C412.26,600.23 424.70,600.29 425.39,599.18 ZM 473.46 599.06 C473.78,598.55 473.37,597.75 472.55,597.29 C471.32,596.60 471.00,593.25 470.77,578.97 L 470.50 561.50 L 465.04 561.19 C459.75,560.89 459.63,560.94 461.29,562.77 C462.75,564.38 463.00,566.94 463.00,580.21 C463.00,592.76 462.71,595.99 461.51,596.99 C460.69,597.67 460.27,598.63 460.57,599.11 C461.30,600.30 472.73,600.25 473.46,599.06 ZM 493.43 599.11 C493.73,598.63 493.31,597.67 492.49,596.99 C491.32,596.02 491.01,593.23 491.03,584.13 L 491.06 572.50 L 504.51 586.25 C517.31,599.34 518.15,600.00 521.92,600.00 C525.85,600.00 527.97,598.72 526.02,597.51 C524.49,596.57 524.67,563.73 526.20,562.20 C527.13,561.27 525.74,561.01 519.95,561.05 C512.89,561.10 512.62,561.19 514.75,562.67 C516.83,564.13 517.00,565.00 517.00,574.46 C517.00,580.07 516.78,584.88 516.52,585.15 C516.26,585.41 510.50,580.09 503.73,573.31 L 491.41 561.00 L 486.21 561.00 C483.34,561.00 481.00,561.45 481.00,562.00 C481.00,562.55 481.45,563.00 482.00,563.00 C482.63,563.00 483.00,569.15 483.00,579.44 C483.00,589.32 482.60,596.13 482.00,596.50 C481.45,596.84 481.00,597.77 481.00,598.56 C481.00,599.65 482.43,600.00 486.94,600.00 C490.21,600.00 493.13,599.60 493.43,599.11 ZM 573.80 594.75 C574.12,589.89 573.21,588.84 571.00,591.50 C570.02,592.68 567.22,593.00 557.88,593.00 L 546.00 593.00 L 546.00 588.00 L 546.00 583.00 L 554.88 583.00 C564.59,583.00 566.39,582.13 564.89,578.18 C564.05,575.95 563.65,575.87 555.00,576.18 L 546.00 576.50 L 546.00 571.75 L 546.00 567.00 L 557.28 567.00 C565.56,567.00 569.11,567.39 570.65,568.46 C573.31,570.33 574.00,569.59 574.00,564.83 L 574.00 561.00 L 554.50 561.00 C542.17,561.00 535.00,561.37 535.00,562.00 C535.00,562.55 535.45,563.00 536.00,563.00 C536.63,563.00 537.00,569.15 537.00,579.44 C537.00,589.32 536.60,596.13 536.00,596.50 C535.45,596.84 535.00,597.78 535.00,598.58 C535.00,599.82 537.90,600.00 554.25,599.77 L 573.50 599.50 L 573.80 594.75 ZM 260.14 518.47 C262.51,516.81 265.81,513.51 267.47,511.14 L 270.50 506.83 L 270.50 468.00 L 270.50 429.17 L 267.50 424.84 C265.48,421.92 262.70,419.61 259.00,417.78 L 253.50 415.06 L 218.50 415.04 C197.06,415.02 182.04,415.42 179.72,416.06 C174.53,417.50 169.13,422.52 166.35,428.49 C164.05,433.43 164.02,433.99 164.01,467.57 C164.00,496.68 164.24,502.35 165.66,506.50 C167.62,512.28 174.03,519.09 179.01,520.70 C181.38,521.47 194.22,521.78 219.17,521.67 L 255.83 521.50 L 260.14 518.47 ZM 408.54 520.12 C413.70,517.78 420.69,509.86 422.05,504.82 C422.71,502.35 422.99,488.26 422.80,466.21 C422.51,432.55 422.43,431.37 420.28,427.35 C417.46,422.08 411.97,417.53 406.64,416.05 C403.77,415.24 391.64,414.98 367.00,415.20 L 331.50 415.50 L 327.00 418.02 C323.89,419.76 321.49,422.22 319.25,425.97 L 316.00 431.41 L 316.01 466.96 C316.01,487.34 316.43,504.02 317.00,506.07 C318.35,510.91 324.51,517.87 329.44,520.11 C333.14,521.79 336.65,521.96 369.00,521.96 C401.30,521.96 404.86,521.79 408.54,520.12 ZM 559.35 520.63 C564.43,518.51 570.06,513.03 572.13,508.20 C573.84,504.20 574.00,500.79 574.00,467.96 C574.00,442.00 573.66,431.32 572.78,429.30 C570.47,423.97 566.81,420.09 561.72,417.55 L 556.61 415.00 L 521.55 415.01 C500.18,415.01 485.03,415.42 482.72,416.06 C477.95,417.38 472.52,422.11 469.69,427.41 C467.58,431.36 467.49,432.71 467.20,465.83 C466.86,505.14 467.28,508.28 473.80,514.80 C481.06,522.06 480.34,521.95 520.28,521.98 C548.42,522.00 556.77,521.71 559.35,520.63 ZM 256.78 374.45 C261.44,372.51 266.60,367.62 269.09,362.79 C270.87,359.34 271.00,356.56 271.00,322.51 C271.00,281.81 271.00,281.83 264.34,275.54 C257.83,269.40 254.90,269.00 217.07,269.01 C197.99,269.01 181.96,269.44 179.93,270.00 C174.23,271.59 168.42,277.27 166.06,283.56 C164.13,288.73 164.00,291.18 164.01,322.29 C164.01,342.08 164.43,357.00 165.05,359.22 C166.56,364.69 171.90,371.18 176.98,373.75 C181.34,375.96 182.08,376.00 217.24,376.00 C247.34,376.00 253.66,375.75 256.78,374.45 ZM 410.00 373.65 C415.17,371.01 420.45,364.64 421.95,359.22 C422.58,356.99 422.98,341.91 422.97,321.50 C422.96,289.43 422.84,287.24 420.92,283.00 C418.38,277.40 415.64,274.42 410.50,271.65 C406.61,269.56 405.48,269.50 369.00,269.50 L 331.50 269.50 L 326.74 272.30 C323.44,274.23 321.07,276.68 319.00,280.30 L 316.02 285.50 L 316.01 321.93 C316.00,356.60 316.10,358.57 318.04,362.59 C320.66,367.99 324.45,371.80 329.50,374.12 C333.15,375.79 336.69,375.96 369.50,375.95 C405.07,375.94 405.55,375.92 410.00,373.65 ZM 559.78 374.45 C564.70,372.40 569.81,367.44 572.10,362.50 C573.80,358.84 573.96,355.46 573.96,322.50 C573.96,289.66 573.79,286.14 572.11,282.44 C569.85,277.45 563.32,271.71 558.14,270.16 C553.29,268.71 488.14,268.56 483.00,269.99 C478.26,271.30 472.42,276.30 469.72,281.35 C467.56,285.38 467.49,286.53 467.20,320.90 C466.94,351.64 467.12,356.83 468.52,360.34 C470.93,366.38 473.79,369.91 478.85,373.12 L 483.39 376.00 L 519.73 376.00 C550.29,376.00 556.66,375.75 559.78,374.45 ZM 409.95 228.00 C415.15,225.08 420.48,218.52 421.95,213.22 C422.57,211.00 422.99,195.79 422.99,175.36 L 423.00 141.23 L 420.21 135.88 C416.70,129.18 411.40,125.35 403.64,123.93 C399.96,123.26 385.56,122.98 365.14,123.19 C329.50,123.55 328.52,123.70 322.61,129.61 C316.15,136.06 316.05,136.78 316.02,176.55 L 316.00 212.61 L 318.60 217.83 C320.04,220.70 322.72,224.21 324.58,225.63 C331.18,230.66 333.73,230.94 371.00,230.71 L 405.50 230.50 L 409.95 228.00 ZM 560.32 228.60 C565.16,226.20 569.53,221.85 572.04,216.92 C573.88,213.32 574.00,210.87 574.00,177.01 C574.00,146.66 573.75,140.35 572.45,137.22 C570.48,132.50 566.60,128.41 561.50,125.66 C557.61,123.56 556.48,123.50 521.50,123.50 C482.84,123.50 480.86,123.72 474.93,128.71 C473.27,130.11 470.92,133.11 469.71,135.38 C467.57,139.37 467.49,140.63 467.19,174.31 C466.92,204.71 467.09,209.76 468.55,214.15 C471.16,222.00 476.85,227.52 484.99,230.10 C486.37,230.53 503.02,230.80 522.00,230.69 C553.64,230.52 556.82,230.34 560.32,228.60 ZM 183.50 222.07 C183.50,220.23 182.79,219.45 180.59,218.86 C178.98,218.44 177.30,217.50 176.85,216.79 C175.76,215.08 175.76,160.00 176.85,160.00 C177.31,160.00 179.90,164.18 182.60,169.30 C205.52,212.75 211.66,224.00 212.72,224.42 C214.05,224.96 215.82,221.96 236.05,184.76 C243.45,171.16 249.84,160.02 250.25,160.01 C250.66,160.01 251.00,172.53 251.00,187.85 C251.00,213.11 250.84,215.83 249.25,217.24 C248.29,218.10 246.60,218.96 245.50,219.16 C244.13,219.41 243.50,220.32 243.50,222.01 L 243.50 224.50 L 260.00 224.50 L 276.50 224.50 L 276.82 221.75 C277.03,219.90 276.67,219.00 275.72,219.00 C274.95,219.00 273.56,218.17 272.64,217.16 C271.14,215.49 271.00,211.52 271.24,175.92 L 271.50 136.53 L 274.31 135.18 C276.32,134.22 277.03,133.22 276.81,131.67 C276.51,129.56 276.09,129.50 262.82,129.50 C250.69,129.50 248.84,129.73 246.50,131.50 C244.96,132.66 239.98,140.83 234.62,151.00 C218.71,181.16 215.84,186.46 214.76,187.78 C213.55,189.24 212.40,187.25 196.12,155.50 C190.47,144.50 184.90,134.48 183.74,133.23 C180.54,129.81 175.65,128.85 163.00,129.19 C151.54,129.50 151.50,129.51 151.50,131.95 C151.50,133.75 152.17,134.57 154.00,135.00 L 156.50 135.59 L 156.76 176.26 L 157.02 216.94 L 154.01 218.49 C151.20,219.95 150.09,222.76 151.69,224.36 C152.07,224.74 159.38,224.93 167.94,224.77 L 183.50 224.50 L 183.50 222.07 ZM 238.27 591.52 C234.36,589.82 231.01,584.65 231.00,580.32 C230.99,571.94 235.79,568.01 246.02,568.00 C257.27,568.00 262.44,573.52 260.56,583.53 C259.57,588.82 253.36,593.01 246.60,592.96 C243.79,592.94 240.05,592.29 238.27,591.52 Z" fill="rgb(254,254,254)"/>
</g>
</svg>